<svg xmlns="http://www.w3.org/2000/svg" viewBox="0 0 1600 760"><g fill="#66e491"><g transform="translate(175 170)"><circle r="8" opacity=".12"/><circle r="2"/></g><g transform="translate(192 164)"><circle r="8" opacity=".12"/><circle r="2"/></g><g transform="translate(180 187)"><circle r="8" opacity=".12"/><circle r="2"/></g><g transform="translate(158 182)"><circle r="8" opacity=".12"/><circle r="2"/></g><g transform="translate(201 189)"><circle r="8" opacity=".12"/><circle r="2"/></g><g transform="translate(770 125)"><circle r="8" opacity=".12"/><circle r="2"/></g><g transform="translate(750 142)"><circle r="8" opacity=".12"/><circle r="2"/></g><g transform="translate(786 154)"><circle r="8" opacity=".12"/><circle r="2"/></g><g transform="translate(803 130)"><circle r="8" opacity=".12"/><circle r="2"/></g><g transform="translate(778 166)"><circle r="8" opacity=".12"/><circle r="2"/></g><g transform="translate(760 175)"><circle r="8" opacity=".12"/><circle r="2"/></g><g transform="translate(1260 245)"><circle r="8" opacity=".12"/><circle r="2"/></g><g transform="translate(1276 234)"><circle r="8" opacity=".12"/><circle r="2"/></g><g transform="translate(1284 255)"><circle r="8" opacity=".12"/><circle r="2"/></g><g transform="translate(1252 267)"><circle r="8" opacity=".12"/><circle r="2"/></g><g transform="translate(855 450)"><circle r="8" opacity=".12"/><circle r="2"/></g><g transform="translate(840 462)"><circle r="8" opacity=".12"/><circle r="2"/></g><g transform="translate(870 470)"><circle r="8" opacity=".12"/><circle r="2"/></g><g transform="translate(330 300)"><circle r="8" opacity=".12"/><circle r="2"/></g><g transform="translate(950 215)"><circle r="8" opacity=".12"/><circle r="2"/></g><g transform="translate(1195 270)"><circle r="8" opacity=".12"/><circle r="2"/></g><g transform="translate(1320 520)"><circle r="8" opacity=".12"/><circle r="2"/></g></g></svg>