<svg xmlns="http://www.w3.org/2000/svg" viewBox="0 0 1600 760"><g fill="#66e491"><g transform="translate(252 158)"><circle r="8" opacity=".12"/><circle r="2"/></g><g transform="translate(266 178)"><circle r="8" opacity=".12"/><circle r="2"/></g><g transform="translate(241 184)"><circle r="8" opacity=".12"/><circle r="2"/></g><g transform="translate(278 165)"><circle r="8" opacity=".12"/><circle r="2"/></g><g transform="translate(840 170)"><circle r="8" opacity=".12"/><circle r="2"/></g><g transform="translate(820 158)"><circle r="8" opacity=".12"/><circle r="2"/></g><g transform="translate(831 190)"><circle r="8" opacity=".12"/><circle r="2"/></g><g transform="translate(856 184)"><circle r="8" opacity=".12"/><circle r="2"/></g><g transform="translate(866 163)"><circle r="8" opacity=".12"/><circle r="2"/></g><g transform="translate(1330 275)"><circle r="8" opacity=".12"/><circle r="2"/></g><g transform="translate(1314 289)"><circle r="8" opacity=".12"/><circle r="2"/></g><g transform="translate(1347 296)"><circle r="8" opacity=".12"/><circle r="2"/></g><g transform="translate(1356 267)"><circle r="8" opacity=".12"/><circle r="2"/></g><g transform="translate(435 545)"><circle r="8" opacity=".12"/><circle r="2"/></g><g transform="translate(421 561)"><circle r="8" opacity=".12"/><circle r="2"/></g><g transform="translate(447 568)"><circle r="8" opacity=".12"/><circle r="2"/></g><g transform="translate(205 235)"><circle r="8" opacity=".12"/><circle r="2"/></g><g transform="translate(1010 240)"><circle r="8" opacity=".12"/><circle r="2"/></g><g transform="translate(1230 310)"><circle r="8" opacity=".12"/><circle r="2"/></g><g transform="translate(1370 545)"><circle r="8" opacity=".12"/><circle r="2"/></g></g></svg>